<svg width="11" height="11" viewBox="0 0 11 11" fill="none" xmlns="http://www.w3.org/2000/svg">
<path fill-rule="evenodd" clip-rule="evenodd" d="M4.00061 0.500885C4.00061 0.368277 4.05329 0.2411 4.14706 0.147332C4.24083 0.0535635 4.368 0.00088501 4.50061 0.00088501H9.50061C9.63322 0.00088501 9.7604 0.0535635 9.85416 0.147332C9.94793 0.2411 10.0006 0.368277 10.0006 0.500885V5.50089C10.0006 5.63349 9.94793 5.76067 9.85416 5.85444C9.7604 5.94821 9.63322 6.00089 9.50061 6.00089C9.368 6.00089 9.24082 5.94821 9.14706 5.85444C9.05329 5.76067 9.00061 5.63349 9.00061 5.50089V1.00089H4.50061C4.368 1.00089 4.24083 0.948206 4.14706 0.854438C4.05329 0.76067 4.00061 0.633493 4.00061 0.500885Z" fill="black"/>
<path fill-rule="evenodd" clip-rule="evenodd" d="M9.85463 0.146894C9.90119 0.193339 9.93814 0.248515 9.96334 0.30926C9.98855 0.370005 10.0015 0.435127 10.0015 0.500894C10.0015 0.566661 9.98855 0.631782 9.96334 0.692528C9.93814 0.753273 9.90119 0.808448 9.85463 0.854894L0.854632 9.85489C0.760745 9.94878 0.633407 10.0015 0.500632 10.0015C0.367856 10.0015 0.240518 9.94878 0.146631 9.85489C0.0527448 9.76101 3.1283e-09 9.63367 0 9.50089C-3.1283e-09 9.36812 0.0527449 9.24078 0.146631 9.14689L9.14663 0.146894C9.19308 0.100331 9.24825 0.0633878 9.309 0.0381813C9.36974 0.0129749 9.43486 0 9.50063 0C9.5664 0 9.63152 0.0129749 9.69226 0.0381813C9.75301 0.0633878 9.80819 0.100331 9.85463 0.146894Z" fill="black"/>
</svg>
