<svg width="146" height="72" viewBox="0 0 146 72" fill="none" xmlns="http://www.w3.org/2000/svg">
<g clip-path="url(#clip0)">
<path d="M90.8419 65.4412C92.0345 65.4412 92.7412 65.0171 93.3772 64.3369L92.5115 63.4623C92.0256 63.904 91.5927 64.1867 90.886 64.1867C89.8259 64.1867 89.0927 63.3033 89.0927 62.2432V62.2256C89.0927 61.1655 89.8436 60.2997 90.886 60.2997C91.5044 60.2997 91.9903 60.5648 92.4673 60.9976L93.3331 59.9994C92.7589 59.434 92.061 59.0453 90.8949 59.0453C88.9955 59.0453 87.6704 60.4852 87.6704 62.2432V62.2609C87.6704 64.0366 89.022 65.4412 90.8419 65.4412Z" fill="#C75B43"/>
<path d="M97.1165 65.3352H98.477V63.3563H99.5459L100.871 65.3352H102.461L100.951 63.1266C101.737 62.8351 102.276 62.2079 102.276 61.2096V61.192C102.276 60.6089 102.09 60.123 101.746 59.7785C101.339 59.3721 100.73 59.1513 99.9435 59.1513H97.1165V65.3352ZM98.477 62.1549V60.3792H99.8286C100.491 60.3792 100.898 60.6796 100.898 61.2626V61.2803C100.898 61.8015 100.518 62.1549 99.8551 62.1549H98.477Z" fill="#C75B43"/>
<path d="M109.154 65.4412C111.063 65.4412 112.45 64.0012 112.45 62.2432V62.2256C112.45 60.4676 111.08 59.0453 109.172 59.0453C107.264 59.0453 105.877 60.4852 105.877 62.2432V62.2609C105.877 64.0189 107.246 65.4412 109.154 65.4412ZM109.172 64.1867C108.077 64.1867 107.299 63.3033 107.299 62.2432V62.2256C107.299 61.1655 108.059 60.2997 109.154 60.2997C110.25 60.2997 111.027 61.1831 111.027 62.2432V62.2609C111.027 63.321 110.267 64.1867 109.172 64.1867Z" fill="#C75B43"/>
<path d="M118.463 65.4235C119.797 65.4235 120.733 64.7344 120.733 63.5065V63.4888C120.733 62.4111 120.027 61.9605 118.772 61.6337C117.703 61.3598 117.438 61.2273 117.438 60.8209V60.8033C117.438 60.5029 117.712 60.2644 118.233 60.2644C118.755 60.2644 119.294 60.4941 119.841 60.8739L120.548 59.8492C119.921 59.3456 119.152 59.063 118.251 59.063C116.988 59.063 116.087 59.805 116.087 60.927V60.9446C116.087 62.1726 116.891 62.5171 118.136 62.8351C119.17 63.1001 119.382 63.2768 119.382 63.6213V63.639C119.382 64.0012 119.046 64.2221 118.49 64.2221C117.783 64.2221 117.2 63.9305 116.643 63.4712L115.839 64.4341C116.581 65.0966 117.527 65.4235 118.463 65.4235Z" fill="#C75B43"/>
<path d="M124.564 65.3352H127.506C128.902 65.3352 129.821 64.7698 129.821 63.639V63.6213C129.821 62.7909 129.379 62.3757 128.663 62.1019C129.105 61.8545 129.476 61.4658 129.476 60.7679V60.7503C129.476 60.3262 129.335 59.9817 129.052 59.699C128.699 59.3456 128.142 59.1513 127.435 59.1513H124.564V65.3352ZM128.124 60.9976C128.124 61.457 127.745 61.6513 127.144 61.6513H125.889V60.3439H127.232C127.806 60.3439 128.124 60.5736 128.124 60.98V60.9976ZM128.469 63.4535V63.4712C128.469 63.9305 128.107 64.1426 127.506 64.1426H125.889V62.7821H127.462C128.16 62.7821 128.469 63.0383 128.469 63.4535Z" fill="#C75B43"/>
<path d="M135.063 65.3352H136.423V62.8705L138.8 59.1513H137.254L135.752 61.6337L134.277 59.1513H132.686L135.063 62.897V65.3352Z" fill="#C75B43"/>
<path fill-rule="evenodd" clip-rule="evenodd" d="M23.2955 26.7367C24.3528 25.3062 25.5728 24.2729 27.0097 23.8878C28.0766 23.602 29.1618 23.6572 30.0815 24.1434C31.0085 24.6335 31.7074 25.5299 32.0497 26.8072C33.1548 30.9316 31.2831 35.9558 28.1258 40.1831C25.1392 44.182 20.911 47.5947 16.6539 48.9857C15.6971 52.7681 14.72 56.5222 13.6197 59.8324C18.174 59.0348 22.9114 59.0293 26.8666 59.2953C31.7211 59.6219 35.4408 60.3609 36.2615 60.5768C36.5236 60.6457 36.6802 60.9141 36.6113 61.1763C36.5423 61.4384 36.2739 61.595 36.0118 61.5261C35.2625 61.329 31.6059 60.5979 26.8007 60.2747C22.7271 60.0007 17.8592 60.0221 13.2561 60.8965C13.0252 61.5532 12.7887 62.1895 12.5456 62.8017C11.6933 64.9485 10.7512 66.8253 9.6743 68.2625C8.59844 69.6983 7.35806 70.7347 5.89999 71.1254C4.74766 71.4342 3.67098 71.3825 2.79789 70.9728C1.91569 70.5589 1.287 69.7995 1.01762 68.7942C0.600771 67.2385 1.55263 65.5477 3.20464 64.1166C4.88717 62.659 7.42639 61.3432 10.5536 60.5053C11.1992 60.3323 11.8534 60.1787 12.5132 60.0429C13.6168 56.8114 14.5973 53.0991 15.5618 49.2995C6.85132 51.5389 2.10249 48.845 0.733229 47.8629C0.512974 47.7049 0.462489 47.3983 0.620467 47.178C0.778445 46.9578 1.08506 46.9073 1.30532 47.0653C2.47872 47.9069 7.02664 50.572 15.6252 48.268C15.696 48.249 15.7668 48.2294 15.8376 48.2092C15.9084 47.9289 15.9791 47.6484 16.0499 47.3677L16.0926 47.1979C17.4463 41.826 18.8073 36.425 20.4697 32.185C21.3099 30.0418 22.2369 28.1691 23.2955 26.7367ZM16.9418 47.845C20.7597 46.4192 24.5786 43.2922 27.3394 39.5957C30.4286 35.4596 32.0907 30.753 31.1015 27.0612C30.8185 26.005 30.2719 25.3543 29.6227 25.0112C28.9663 24.6641 28.1446 24.5999 27.2637 24.836C26.1241 25.1413 25.072 25.9845 24.0849 27.3201C23.0991 28.6539 22.2093 30.4371 21.3835 32.5433C19.7441 36.7249 18.3956 42.0762 17.0335 47.4812L17.0017 47.6075C16.9817 47.6867 16.9618 47.7659 16.9418 47.845ZM12.1308 61.1289C11.686 61.2283 11.2447 61.3363 10.8077 61.4534C7.78892 62.2623 5.39309 63.5193 3.84734 64.8584C2.27107 66.224 1.70141 67.5537 1.96574 68.5402C2.16402 69.2802 2.60753 69.7992 3.21483 70.0842C3.83125 70.3734 4.66138 70.4411 5.64594 70.1773C6.81172 69.8649 7.88476 69.0138 8.88879 67.6739C9.89176 66.3354 10.796 64.5483 11.6333 62.4394C11.8021 62.0142 11.9679 61.577 12.1308 61.1289Z" fill="#C75B43"/>
<path fill-rule="evenodd" clip-rule="evenodd" d="M90.4871 1.09687C91.0601 1.3103 91.5092 1.81686 91.7201 2.60383C92.0552 3.85449 91.9513 5.48416 91.566 7.3349C91.1782 9.19802 90.4925 11.3418 89.6112 13.6494C88.6882 16.0661 87.545 18.6767 86.2916 21.3527C86.3679 22.5161 86.4714 23.6841 86.6016 24.842C87.176 29.9508 88.2671 34.8209 89.8289 38.2277C90.611 39.9338 91.4928 41.2315 92.4506 42.0181C93.3896 42.7892 94.3898 43.0637 95.4885 42.7694C96.2337 42.5697 97.1322 41.8861 98.1023 40.6716C99.0608 39.4717 100.043 37.8116 100.972 35.7666C102.83 31.6783 104.453 26.1038 105.261 19.7267C105.293 19.4749 105.512 19.289 105.765 19.2979C106.019 19.3068 106.224 19.5077 106.238 19.7611C106.583 25.9398 107.716 29.9992 109.335 32.4613C110.928 34.8843 112.997 35.7754 115.361 35.6245C116.97 35.5217 118.744 34.701 120.506 33.35C122.261 32.0039 123.966 30.1602 125.429 28.0789C125.517 27.9543 125.603 27.8291 125.689 27.7031C125.411 27.1978 125.164 26.6716 124.945 26.1352C123.542 22.6887 123.24 18.6714 123.442 16.4976C123.712 13.5705 125.189 11.6758 126.905 11.3145C127.772 11.1318 128.649 11.3622 129.347 12.0068C130.036 12.6431 130.521 13.6522 130.708 14.9927L130.708 14.9932C131.238 18.8099 129.504 23.6467 126.843 27.7396C128.238 30.0081 130.305 31.5649 133.299 31.4301C137.101 31.2576 139.696 28.538 141.447 25.0998C143.195 21.6698 144.036 17.6452 144.368 15.1421C144.403 14.8734 144.65 14.6844 144.919 14.7201C145.187 14.7557 145.376 15.0024 145.341 15.2711C145.002 17.8278 144.141 21.9756 142.322 25.5454C140.507 29.1069 137.67 32.2143 133.343 32.4106L133.343 32.4106C130.048 32.5591 127.772 30.9072 126.246 28.6231C126.242 28.6298 126.237 28.6366 126.232 28.6433C124.723 30.7895 122.953 32.7109 121.103 34.1289C119.261 35.5419 117.302 36.484 115.424 36.604C112.706 36.7776 110.3 35.7163 108.515 33.0005C107.156 30.9347 106.163 27.9225 105.619 23.7859C104.718 28.6147 103.372 32.8579 101.866 36.1726C100.915 38.2661 99.8932 40.0023 98.8692 41.2842C97.8567 42.5518 96.7938 43.4358 95.7425 43.7175C94.2882 44.1072 92.9685 43.7135 91.8277 42.7766C90.7056 41.8552 89.7474 40.4053 88.9366 38.6368C87.3126 35.0943 86.2058 30.1071 85.6261 24.9517C85.5584 24.3492 85.4978 23.7438 85.4444 23.1376C84.5512 24.9961 83.6172 26.8722 82.6784 28.7237C81.488 31.0716 80.2928 33.3742 79.1609 35.5548C77.8372 38.1049 76.6001 40.4882 75.5583 42.5824C75.5912 42.6317 75.6241 42.681 75.6568 42.7305C76.491 43.9913 77.2031 45.2477 77.5796 46.6528C78.1299 48.7066 76.9877 50.6456 75.617 51.573C74.9288 52.0387 74.1068 52.3024 73.3406 52.1263C72.5348 51.9411 71.932 51.3046 71.6557 50.2734C71.5606 49.9186 71.6222 49.4654 71.7354 49.0032C71.8543 48.5178 72.0545 47.9323 72.3175 47.2672C72.8097 46.0225 73.5394 44.4544 74.4245 42.6599C74.2242 42.3684 74.0145 42.0685 73.7992 41.7606C73.2447 40.9676 72.6527 40.1212 72.0882 39.2266C70.4643 36.6534 68.9142 33.4658 68.2855 28.8677C66.4477 35.0868 63.5462 41.242 60.3742 46.2016C58.5628 49.0337 56.6559 51.4874 54.7983 53.3442C52.9511 55.1907 51.1103 56.49 49.4258 56.9413C47.9537 57.3358 46.6842 57.2894 45.6232 56.8507C44.5611 56.4117 43.7628 55.6024 43.1928 54.5722C42.0653 52.5342 41.7922 49.5673 42.1056 46.522C42.4206 43.4612 43.3365 40.2371 44.6745 37.6353C45.9995 35.0589 47.7993 32.9776 49.9446 32.4028C50.8942 32.1483 51.888 32.2234 52.6641 32.7726C53.4506 33.3291 53.9125 34.3003 53.9358 35.6243L53.9358 35.6255C53.9687 37.8 52.4349 40.2339 50.3522 42.1766C48.3398 44.0537 45.7047 45.5781 43.1482 46.0475C43.1237 46.2396 43.1016 46.4314 43.082 46.6225C42.7767 49.5888 43.0668 52.3168 44.0517 54.0971C44.5381 54.9761 45.1834 55.6068 45.9982 55.9436C46.814 56.2809 47.8546 56.3462 49.1718 55.9932C50.6075 55.6085 52.2997 54.454 54.1044 52.65C55.8987 50.8563 57.7627 48.4629 59.5473 45.6727C63.1171 40.0913 66.3404 32.9676 68.048 25.9858C68.1059 25.749 68.3288 25.5906 68.5715 25.6138C68.8141 25.637 69.003 25.8348 69.0149 26.0783C69.3058 31.9976 71.06 35.7581 72.9183 38.7027C73.4814 39.595 74.0361 40.3871 74.5725 41.1531C74.6906 41.3216 74.8077 41.4889 74.9239 41.6557C75.914 39.6798 77.0703 37.452 78.2975 35.0876C79.4305 32.9047 80.6239 30.6052 81.803 28.2798C83.0035 25.9122 84.1923 23.5115 85.2959 21.1638C85.0511 17.2366 85.1106 13.3627 85.4887 10.085C85.7383 7.92048 86.129 5.99757 86.6721 4.48492C87.2074 2.99401 87.924 1.80688 88.8908 1.24489L88.8963 1.24168L88.8963 1.24172C89.345 0.988644 89.934 0.890808 90.4871 1.09687ZM86.1827 19.2471C86.0608 16.0187 86.1526 12.8954 86.4638 10.1975C86.7087 8.07382 87.0876 6.2322 87.5959 4.81662C88.1112 3.38139 88.7269 2.47712 89.3812 2.09516C89.6187 1.96214 89.9048 1.92741 90.1445 2.01668C90.3652 2.09892 90.627 2.31685 90.772 2.85788C91.0469 3.88377 90.9807 5.33061 90.6051 7.13485C90.2321 8.92672 89.5661 11.0164 88.6942 13.2992C87.9759 15.18 87.1213 17.183 86.1827 19.2471ZM43.302 45.0149C45.5281 44.521 47.8574 43.1614 49.6827 41.4588C51.6982 39.5789 52.9806 37.395 52.9543 35.641C52.9348 34.5368 52.561 33.9021 52.0971 33.5738C51.6226 33.238 50.9511 33.1493 50.1987 33.3509C48.4673 33.8148 46.8376 35.5755 45.5474 38.0842C44.5008 40.1194 43.7177 42.5717 43.302 45.0149ZM75.0546 43.6039C74.2875 45.1752 73.6617 46.5372 73.2304 47.6281C72.9747 48.2746 72.7925 48.8133 72.6888 49.2367C72.5794 49.6833 72.5782 49.9236 72.6038 50.0194C72.8104 50.7905 73.1918 51.0849 73.5604 51.1696C73.9686 51.2634 74.5113 51.136 75.067 50.7601C76.1842 50.0042 77.047 48.4577 76.6314 46.9069C76.3265 45.7688 75.7673 44.7134 75.0546 43.6039ZM126.303 26.7615C128.734 22.8715 130.201 18.4832 129.736 15.1281C129.57 13.9405 129.157 13.1673 128.681 12.7279C128.214 12.2969 127.66 12.1585 127.107 12.275C125.983 12.5117 124.668 13.8865 124.419 16.5881L124.419 16.5885C124.23 18.6269 124.518 22.4833 125.854 25.7649C125.993 26.1057 126.142 26.4386 126.303 26.7615Z" fill="#C75B43"/>
<path fill-rule="evenodd" clip-rule="evenodd" d="M107.238 10.8843C107.312 10.98 107.372 11.0942 107.404 11.2114C107.462 11.4306 107.432 11.7 107.333 11.9284C107.225 12.175 107.008 12.4356 106.642 12.5337C106.38 12.6038 106.111 12.4484 106.041 12.1866C105.999 12.0315 106.037 11.8737 106.129 11.7564C106.108 11.7479 106.087 11.7378 106.067 11.7262C105.832 11.591 105.751 11.291 105.886 11.056C105.982 10.8899 106.112 10.732 106.296 10.6391C106.498 10.5369 106.71 10.5412 106.889 10.613C107.05 10.6781 107.165 10.7895 107.238 10.8843Z" fill="#C75B43"/>
</g>
<defs>
<clipPath id="clip0">
<rect width="146" height="72" fill="white"/>
</clipPath>
</defs>
</svg>
